<?xml version="1.0" encoding="UTF-8"?>
<svg id="a" data-name="Layer 3" xmlns="http://www.w3.org/2000/svg" width="45.82" height="42.81" viewBox="0 0 45.82 42.81">
  <path d="M16.25,1.58L1.57,17.5c-.09.1-.09.26,0,.36l13.52,13.13c.1.1.26.1.36,0l5.65-5.41c.09-.09.11-.23.03-.34l-2.19-3.06c-.12-.17,0-.42.22-.41l12.37.51s.08.01.12.03c.38.22,2.64,1.69,2.71,4.28s-2.19,4.29-2.57,4.55c-.04.03-.08.04-.12.04l-15.36,1.39c-.13.01-.23.12-.23.25l-.1,8.18c0,.15.12.26.26.26l18.81-.46s.04,0,.06,0c.58-.17,9.47-3.02,9.19-14.21-.27-11.16-9.92-13.94-10.65-14.15-.03,0-.8-.14-.83-.14l-14.15.7c-.23.01-.36-.27-.2-.44l4.87-5.02c.1-.11.1-.28-.02-.38l-6.72-5.64c-.11-.09-.26-.08-.35.02Z" fill="none" fill-rule="evenodd" stroke="currentColor" stroke-miterlimit="10" stroke-width="3"/>
</svg>