<svg width="23" height="26" viewBox="0 0 23 26" fill="none" xmlns="http://www.w3.org/2000/svg">
<path fill="currentColor" d="M4.89136 4.04794V21.6734C4.89136 21.9264 5.14436 22.0108 5.31302 21.9264L11.0476 17.9628C11.385 17.7098 11.8066 17.7098 12.0596 17.9628L17.9629 22.1794C18.1316 22.3481 18.3846 22.1794 18.3846 21.9264V4.04794C18.3846 3.79495 18.2159 3.62628 17.9629 3.62628H5.31302C5.06002 3.62628 4.89136 3.79495 4.89136 4.04794ZM16.3606 18.6375L12.144 15.6015C11.891 15.4328 11.4693 15.4328 11.2163 15.6015L6.91534 18.5531V6.32492C6.91534 6.07193 7.084 5.90326 7.337 5.90326H16.0233C16.2762 5.90326 16.4449 6.07193 16.4449 6.32492V18.6375H16.3606Z"/>
</svg>
