<svg width="23" height="26" viewBox="0 0 23 26" fill="none" xmlns="http://www.w3.org/2000/svg">
<path fill="currentColor" d="M9.52966 14.7582V9.10792C9.52966 9.02358 9.614 8.85492 9.78266 8.85492H11.2163C11.3006 8.85492 11.4693 8.93925 11.4693 9.10792V13.1559H15.9389C16.0233 13.1559 16.1076 13.2402 16.1076 13.3245V14.8425C16.1076 14.9269 16.0233 15.0955 15.8546 15.0955H9.95133C9.78266 15.0955 9.614 14.9269 9.614 14.6739L9.52966 14.7582Z"/>
<path fill="currentColor" d="M11.5536 3.54199C6.49362 3.54199 2.36133 7.67429 2.36133 12.7342C2.36133 17.7942 6.49362 21.9265 11.5536 21.9265C16.6135 21.9265 20.7458 17.7942 20.7458 12.7342C20.7458 7.67429 16.6135 3.54199 11.5536 3.54199ZM11.5536 19.9025C7.67428 19.9025 4.55397 16.7822 4.55397 12.9029C4.55397 9.02361 7.67428 5.9033 11.5536 5.9033C15.4329 5.9033 18.5532 9.02361 18.5532 12.9029C18.5532 16.7822 15.4329 19.9025 11.5536 19.9025Z"/>
</svg>
