<svg width="23" height="26" viewBox="0 0 23 26" fill="none" xmlns="http://www.w3.org/2000/svg">
<path fill="currentColor" d="M20.4928 2.95161L16.6135 3.71061L6.74658 13.6618L5.90326 12.9872C5.73459 12.9029 5.56593 12.8185 5.39726 12.8185C5.05993 12.8185 4.63827 12.9029 4.30094 13.3245C3.71061 13.9148 3.96361 15.0112 3.96361 15.0112L5.2286 16.3605L2.02396 19.5651C1.85529 19.7338 1.85529 19.9868 2.02396 20.1555L3.71061 21.8421C3.87928 22.0108 4.21661 22.0108 4.38527 21.8421L7.58991 18.6375L8.8549 19.8181C8.8549 19.8181 9.95122 20.4084 10.6259 19.5651C11.3005 18.7218 11.0475 18.3845 10.9632 18.0471C10.8789 17.7098 10.8789 17.7941 10.7102 17.6255L10.1199 17.0351L20.0711 7.08391L20.8301 3.28894C20.8301 3.03595 20.6615 2.78295 20.4085 2.86728L20.4928 2.95161ZM4.04794 20.6614L3.28895 19.8181L3.87928 19.2278L4.7226 20.0711L4.04794 20.6614ZM5.48159 19.2278L4.7226 18.4688L6.07192 17.1195L6.91525 17.9628L5.56593 19.3121L5.48159 19.2278ZM9.86689 18.8905C9.61389 19.0591 9.27656 18.8905 9.27656 18.8905L4.89127 14.4208C4.89127 14.4208 4.80693 14.1678 5.05993 13.9148C5.31293 13.6618 5.48159 13.9148 5.48159 13.9148L9.95122 18.3845C9.95122 18.3845 10.1199 18.6375 9.86689 18.8905ZM19.1435 6.66224L9.44522 16.3605L8.8549 15.7702L14.1678 10.4572L13.3245 9.69822L8.0959 15.0112L7.50557 14.4208L17.2038 4.7226L19.4808 4.30093L19.0591 6.66224H19.1435Z"/>
</svg>
