<svg width="28" height="26" viewBox="0 0 28 26" fill="none" xmlns="http://www.w3.org/2000/svg">
<path fill="currentColor" fill-rule="evenodd" clip-rule="evenodd" d="M5.71367 6.46927C0.393351 12.5252 0.0295943 13.1574 0.0155467 16.3602C0.00593526 18.423 0.414792 20.1257 1.04545 20.6484C2.33561 21.7197 13.0982 25.1111 15.2542 25.1266C16.3336 25.134 18.4903 23.157 22.0931 18.8555C26.4205 13.6904 27.3557 12.1134 27.3557 9.98337C27.3557 8.06625 27.0378 7.39345 26.1321 7.39345C24.9935 7.39345 24.9935 7.29955 26.1321 6.04119C28.4988 3.42687 27.6877 2.45315 22.0894 1.18961C12.4469 -0.988495 12.1925 -0.906427 5.71367 6.46927ZM17.8308 5.67299C19.0026 5.90736 19.9623 6.42712 19.9623 6.82637C19.9623 7.24188 19.132 7.34539 18.0274 7.06814C16.9635 6.80123 15.1336 6.3909 13.961 6.15652C12.7892 5.92215 11.8295 5.40239 11.8295 5.00315C11.8295 4.58764 12.6598 4.48413 13.7644 4.76138C14.8283 5.02829 16.6582 5.43862 17.8308 5.67299ZM20.6225 15.7288C18.4821 18.2603 16.3772 20.7327 15.944 21.2229C15.3355 21.9119 13.8147 21.7271 9.24182 20.4074C4.41982 19.0159 3.28345 18.4074 3.09048 17.1136C2.79992 15.1595 3.14667 15.1558 9.80594 17.0411L15.1566 18.5561L19.5926 13.6727C25.2811 7.41119 26.1639 9.17379 20.6225 15.7288Z"/>
</svg>
