<svg width="23" height="24" viewBox="0 0 23 24" fill="none" xmlns="http://www.w3.org/2000/svg">
<path fill="currentColor" d="M13.2402 15.8545H2.02399V18.7218H13.2402V15.8545Z"/>
<path fill="currentColor" d="M10.7102 11.9752H2.02399V14.4209H10.7102V11.9752Z"/>
<path fill="currentColor" d="M8.26459 8.0116H2.02399V10.2042H8.26459V8.0116Z"/>
<path fill="currentColor" d="M5.90328 4.13229H2.02399V6.15627H5.90328V4.13229Z"/>
<path fill="currentColor" d="M18.2159 16.6978H15.5172C15.4329 16.6978 15.3486 16.6978 15.3486 16.5292V9.19224H12.3126C12.1439 9.19224 12.1439 9.02358 12.2282 8.93925L16.6135 4.38529C16.7822 4.21662 16.9509 4.21662 17.1195 4.38529L21.4205 9.02358V9.19224H18.5532V16.5292C18.5532 16.6135 18.4689 16.6978 18.3845 16.6978H18.2159Z"/>
</svg>
