<svg width="23" height="24" viewBox="0 0 23 24" fill="none" xmlns="http://www.w3.org/2000/svg">
<path fill="currentColor" d="M13.2402 3.28897H2.02399V6.15628H13.2402V3.28897Z"/>
<path fill="currentColor" d="M10.7102 7.50558H2.02399V9.95123H10.7102V7.50558Z"/>
<path fill="currentColor" d="M8.26459 11.8065H2.02399V13.9992H8.26459V11.8065Z"/>
<path fill="currentColor" d="M5.90328 15.8545H2.02399V17.8785H5.90328V15.8545Z"/>
<path fill="currentColor" d="M18.2159 5.22861H15.5172C15.4329 5.22861 15.3486 5.22861 15.3486 5.39727V12.7342H12.3126C12.1439 12.7342 12.1439 12.9029 12.2282 12.9872L16.6135 17.5412C16.7822 17.7098 16.9509 17.7098 17.1195 17.5412L21.4205 12.9029V12.7342H18.5532V5.39727C18.5532 5.31294 18.4689 5.22861 18.3845 5.22861H18.2159Z"/>
</svg>
