<?xml version="1.0" encoding="UTF-8"?>
<svg id="Layer_2" xmlns="http://www.w3.org/2000/svg" version="1.1" viewBox="0 0 49.5 53.1">
  <!-- Generator: Adobe Illustrator 29.1.0, SVG Export Plug-In . SVG Version: 2.1.0 Build 142)  -->
  <path fill="currentColor" d="M20.3,45.2v-4.4s-6.2,0-6.2,0v-6.8s0,0,0,0v-6.9s4.8,0,4.8,0L8.8,8h10.5s5.6,11.4,5.6,11.4l5.3-11.5h10.4c0,0-9.6,19.3-9.6,19.3h4.8s0,7,0,7h0v6.5s-6.8,0-6.8,0v4.6s-8.7,0-8.7,0ZM22.8,38.4v4.3s3.7,0,3.7,0v-4.6s6.8,0,6.8,0v-2.2s-6.8,0-6.8,0v-4.2s6.8,0,6.8,0v-2s-6.3,0-6.3,0l9.6-19.2h-4.8s-6.8,14.8-6.8,14.8l-7.2-14.8h-4.9s10,19.2,10,19.2h-6.4s0,1.9,0,1.9h6.2s0,4.3,0,4.3h-6.2s0,2.5,0,2.5h6.2Z"/>
</svg>