<?xml version="1.0" encoding="UTF-8"?>
<svg xmlns="http://www.w3.org/2000/svg" version="1.1" viewBox="0 0 23 26">
  <!-- Generator: Adobe Illustrator 29.1.0, SVG Export Plug-In . SVG Version: 2.1.0 Build 142)  -->
  <g id="Layer_1">
    <path fill="currentColor" d="M4.9,4v17.6c0,.3.3.3.4.3l5.7-4c.3-.3.8-.3,1,0l5.9,4.2c.2.2.4,0,.4-.3V4c0-.3-.2-.4-.4-.4H5.3c-.3,0-.4.2-.4.4ZM16.4,18.6l-4.2-3c-.3-.2-.7-.2-.9,0l-4.3,3V6.3c0-.3.2-.4.4-.4h8.7c.3,0,.4.2.4.4v12.3h0Z"/>
  </g>
  <g id="Layer_3">
    <rect fill="currentColor" x="8.8" y="8.7" width="5.7" height="2.6"/>
  </g>
</svg>