<?xml version="1.0" encoding="UTF-8"?>
<svg id="a" data-name="Layer 4" xmlns="http://www.w3.org/2000/svg" width="45.72" height="45.49" viewBox="0 0 45.72 45.49">
  <path d="M32.57,10.5l-.32-7.28c-.04-.96-.84-1.72-1.8-1.72h-15.91c-.99,0-1.8.81-1.8,1.8v7.22c0,.97-.77,1.76-1.73,1.8l-7.69.29c-.96.04-1.73.83-1.73,1.79l-.08,15.6c0,1,.8,1.81,1.8,1.81h8.5c.99,0,1.79.8,1.8,1.79l.07,8.61c0,.99.81,1.79,1.8,1.79h14.56c.98,0,1.78-.79,1.8-1.77l.15-9.34c.02-.97.8-1.75,1.77-1.77l8.7-.15c.98-.02,1.77-.82,1.77-1.8v-14.85c0-.97-.77-1.76-1.74-1.8l-8.18-.3c-.94-.03-1.69-.78-1.73-1.72Z" fill="none" fill-rule="evenodd" stroke="currentColor" stroke-miterlimit="10" stroke-width="3"/>
</svg>